<?xml version="1.0"?>
<svg version="1.1" xmlns="http://www.w3.org/2000/svg" width="200" height="200" style=""><path fill="#" d="M17.685546875,148.876953125q0-0.29296875,0.1953125-2.0751953125t0.5126953125-4.345703125t0.7080078125-5.517578125t0.68359375-5.5908203125t0.5126953125-4.638671875t0.2197265625-2.685546875q-0.390625-0.1953125-0.9521484375-0.5615234375t-0.5615234375-0.8544921875q0-0.68359375,0.6591796875-1.0986328125t1.1474609375-0.6103515625q0.1953125-2.490234375,0.48828125-6.93359375t0.9033203125-9.5947265625t1.708984375-10.44921875t2.9052734375-9.619140625t4.345703125-7.0556640625t6.25-2.734375t6.15234375,2.34375t3.9794921875,6.103515625t2.34375,8.349609375t1.220703125,9.130859375t0.5126953125,8.49609375t0.1953125,6.34765625q0.09765625,1.513671875,0.732421875,2.0263671875t1.3916015625,0.7080078125t1.3671875,0.439453125t0.6103515625,1.220703125q0,1.123046875-1.3671875,1.5625t-2.1484375,0.537109375q0.48828125,6.103515625,1.3427734375,12.01171875t2.2705078125,11.9140625q0.1953125,1.123046875,0.537109375,2.2705078125t0.341796875,2.2216796875q0,0.78125-0.537109375,1.2939453125t-1.3916015625,0.8056640625t-1.708984375,0.390625t-1.4404296875,0.09765625q-2.197265625,0-3.7109375-0.830078125t-2.001953125-3.173828125q-1.318359375-6.298828125-2.587890625-13.232421875q-1.07421875-6.005859375-1.07421875-11.669921875q0-0.87890625,0.048828125-1.7578125q-4.1015625,0-8.251953125,0.1953125t-7.958984375,1.46484375q-0.09765625,1.318359375-0.48828125,4.98046875t-0.87890625,7.861328125t-1.0009765625,8.0322265625t-0.6103515625,5.4443359375q-0.09765625,0.68359375-1.0009765625,1.2939453125t-1.953125,0.6591796875t-1.85546875-0.6591796875t-0.8056640625-2.5146484375z M26.81640625,119.287109375q3.80859375-0.87890625,7.6416015625-1.025390625t7.7392578125-0.341796875q-0.1953125-1.220703125-0.09765625-2.5146484375t0.09765625-2.6123046875q0-2.880859375-0.146484375-6.689453125t-0.439453125-7.71484375t-0.7568359375-7.6904296875t-1.0498046875-6.73828125t-1.2451171875-4.7119140625t-1.4404296875-1.7578125q-1.513671875,0.09765625-2.8564453125,2.6123046875t-2.44140625,6.396484375t-2.001953125,8.69140625t-1.513671875,9.3994140625t-1.0009765625,8.544921875t-0.48828125,6.15234375z M66.93701171875,132.03125l0-1.416015625q0-1.7578125,0.09765625-3.3203125q0.09765625-2.197265625,0.09765625-3.61328125q0-0.78125,0.09765625-1.7822265625t0.48828125-1.5869140625q0.48828125-0.48828125,1.1474609375-1.0009765625t1.4404296875-0.5126953125q2.490234375,0,3.90625,0.5615234375t1.513671875,2.3193359375l0.1953125,1.513671875q0.87890625-2.099609375,2.34375-5.2001953125t3.3935546875-5.908203125t4.345703125-4.78515625t5.1025390625-1.9775390625q2.490234375,0,4.1015625,2.34375t2.5634765625,5.9814453125t1.3427734375,8.10546875t0.537109375,8.7646484375t0.1953125,7.8369140625t0.341796875,5.3466796875q0.1953125,1.513671875,0.6591796875,3.1982421875t0.4638671875,3.1005859375q0,0.390625-0.5615234375,0.7568359375t-1.1962890625,0.6103515625t-1.2939453125,0.390625t-0.9521484375,0.146484375q-1.904296875,0-2.7099609375-2.8564453125t-1.0009765625-7.1533203125t-0.1953125-9.3017578125t-0.341796875-9.3017578125t-1.3916015625-7.1533203125t-3.3447265625-2.9541015625q-2.099609375,0-4.345703125,2.7099609375t-3.857421875,7.2021484375q-1.5625,4.4921875-2.1484375,10.205078125q-0.1953125,1.806640625-0.1953125,3.61328125q0,3.955078125,0.830078125,7.91015625q0.09765625,0.68359375-0.5615234375,1.025390625t-1.6357421875,0.537109375t-1.9775390625,0.244140625t-1.5380859375,0.048828125q-1.904296875,0-3.0517578125-1.3427734375t-1.7822265625-3.4423828125t-0.8544921875-4.7119140625t-0.2685546875-5.1513671875z M111.3056640625,130.615234375q0-4.4921875,1.0498046875-8.8134765625t1.7822265625-8.6181640625q0.1953125-1.123046875,1.5380859375-1.3916015625t2.2705078125-0.2685546875q1.611328125,0,2.587890625,0.48828125q0.390625,0.1953125,0.732421875,0.439453125t0.341796875,0.634765625q0,4.19921875-1.0009765625,8.203125t-1.0009765625,8.49609375q0,1.513671875,0.2197265625,2.8564453125t0.4150390625,2.6611328125l0.29296875,1.416015625q0,0.390625,0.048828125,0.68359375t0.146484375,0.68359375q0,0.87890625-1.2451171875,1.1962890625t-2.1728515625,0.3173828125q-1.416015625,0-2.6123046875-0.5615234375t-1.8798828125-1.9287109375l-0.68359375-1.416015625q-0.5859375-1.123046875-0.5859375-2.5146484375t-0.244140625-2.5634765625z M114.4306640625,101.220703125l0-0.927734375q0-2.294921875,1.1474609375-4.1015625t3.4423828125-1.806640625q0.29296875,0,0.5615234375,0.048828125t0.5615234375,0.048828125q0.5859375,0.09765625,1.5380859375,0.4638671875t0.9521484375,1.1474609375l0,0.09765625q-0.1953125,0.390625-0.244140625,0.8056640625t-0.244140625,0.7080078125l0.09765625-0.09765625q-0.5859375,1.513671875-0.9521484375,2.44140625t-0.8056640625,1.4892578125t-1.0986328125,0.8056640625t-1.8798828125,0.244140625q-0.1953125,0-0.68359375-0.048828125t-1.0498046875-0.1953125t-0.9521484375-0.390625t-0.390625-0.732421875z M132.62744140625,119.189453125q0-2.001953125,1.171875-3.4423828125t2.8564453125-2.34375t3.6865234375-1.3427734375t3.7109375-0.439453125q1.318359375,0,3.515625,0.390625t4.296875,1.171875t3.6376953125,2.05078125t1.5380859375,2.978515625q0,0.78125-0.5859375,1.3916015625t-1.220703125,0.6103515625q-1.318359375,0-2.392578125-0.8544921875t-2.2216796875-1.806640625t-2.5146484375-1.806640625t-3.076171875-0.8544921875t-3.1005859375,1.0986328125t-1.3916015625,2.9052734375q0,2.978515625,2.099609375,5.8349609375t4.6142578125,6.005859375t4.6142578125,6.6162109375t2.099609375,7.666015625q0,1.806640625-0.7568359375,3.0517578125t-2.001953125,2.0263671875t-2.8076171875,1.1962890625t-3.02734375,0.4150390625q-1.611328125,0-3.759765625-0.7568359375t-4.052734375-2.001953125t-3.1982421875-2.9052734375t-1.2939453125-3.466796875q0-0.87890625,1.2451171875-1.123046875t1.8310546875-0.244140625q0.29296875,0,0.9033203125,0.1953125t1.1962890625,0.439453125t1.0498046875,0.537109375t0.3662109375,0.634765625q0.48828125,0.5859375,1.4892578125,1.7333984375t2.001953125,1.85546875t1.7578125,0.5126953125t0.7568359375-2.197265625q0-3.80859375-2.05078125-7.0068359375t-4.4677734375-6.25t-4.4677734375-6.0546875t-2.05078125-6.4208984375z M167.03515625,137.109375l0-4.58984375q0-2.490234375,0.1220703125-7.0556640625t0.3173828125-10.009765625t0.537109375-11.3525390625t0.78125-11.1572265625t1.0498046875-9.3994140625t1.3916015625-6.15234375q0.48828125-1.123046875,1.611328125-1.416015625t2.197265625-0.29296875q1.708984375,0,3.0029296875,0.7568359375t1.2939453125,2.7587890625l-0.87890625,0.9765625q-1.708984375,11.279296875-2.197265625,22.65625t-0.68359375,22.75390625q1.220703125-1.904296875,2.7587890625-3.7353515625t3.41796875-3.2470703125t4.052734375-2.2705078125t4.7607421875-0.8544921875q3.3203125,0,5.4931640625,2.001953125t3.5888671875,5.2001953125t2.099609375,7.1533203125t1.0498046875,7.91015625t0.5126953125,7.4951171875t0.439453125,5.8837890625q-0.927734375,1.26953125-2.734375,1.26953125l-0.146484375,0q-0.78125,0-1.708984375-0.1953125t-1.220703125-0.9765625l0.09765625,0.09765625q-0.68359375-1.513671875-0.927734375-4.3701171875t-0.390625-6.298828125t-0.5126953125-7.0556640625t-1.0986328125-6.54296875t-2.1484375-4.833984375t-3.80859375-2.001953125l-0.29296875,0q-2.880859375,0-4.833984375,1.7578125q-2.05078125,1.85546875-3.3203125,4.8828125t-1.953125,6.73828125t-1.0498046875,7.1533203125t-0.5615234375,6.25t-0.48828125,4.1259765625q-0.29296875,1.123046875-1.7333984375,1.4892578125t-2.4658203125,0.3662109375q-2.392578125,0-3.90625-1.3671875q-1.123046875-2.685546875-1.318359375-6.689453125t-0.1953125-7.8125z"/><path fill="#" d=""/></svg>
